<?xml version="1.0" standalone="no"?>
<!DOCTYPE svg PUBLIC "-//W3C//DTD SVG 20010904//EN"
 "http://www.w3.org/TR/2001/REC-SVG-20010904/DTD/svg10.dtd">
<svg version="1.0" xmlns="http://www.w3.org/2000/svg"
 width="700.000000pt" height="700.000000pt" viewBox="0 0 700.000000 700.000000"
 preserveAspectRatio="xMidYMid meet">
<metadata>
Created by potrace 1.14, written by Peter Selinger 2001-2017
</metadata>
<g transform="translate(0.000000,700.000000) scale(0.100000,-0.100000)"
fill="#000000" stroke="none">
<path d="M1050 6995 c-8 -2 -49 -9 -90 -15 -458 -74 -833 -439 -936 -910 -18
-82 -19 -182 -19 -2570 0 -2388 1 -2488 19 -2570 52 -239 150 -417 326 -590
193 -191 407 -295 673 -330 57 -7 842 -10 2532 -8 l2450 4 85 21 c238 60 427
168 588 337 156 165 258 363 303 591 21 104 21 4986 0 5090 -46 231 -144 422
-303 590 -162 171 -347 278 -588 338 l-85 21 -2470 2 c-1358 1 -2477 0 -2485
-1z m2803 -1520 l349 -1045 1046 0 1047 0 -698 -698 -697 -697 230 -1035 c127
-569 229 -1041 228 -1047 -2 -7 -410 242 -930 567 l-928 580 -927 -580 c-521
-325 -929 -574 -931 -567 -1 6 101 478 228 1047 l230 1035 -697 697 -698 698
1047 0 1046 0 349 1045 c191 575 350 1045 353 1045 3 0 162 -470 353 -1045z"/>
</g>
</svg>
